<?xml version="1.0"?>
<svg xmlns="http://www.w3.org/2000/svg" height="512px" viewBox="0 0 512 512" width="512px" class=""><g><path d="m457.003906 0h-402.007812c-30.324219 0-54.996094 24.671875-54.996094 54.996094v402.007812c0 30.324219 24.671875 54.996094 54.996094 54.996094h402.007812c30.324219 0 54.996094-24.671875 54.996094-54.996094v-402.007812c0-30.324219-24.671875-54.996094-54.996094-54.996094zm-402.007812 30h402.007812c13.78125 0 24.996094 11.214844 24.996094 24.996094v66.003906h-452v-66.003906c0-13.78125 11.214844-24.996094 24.996094-24.996094zm402.007812 452h-402.007812c-13.78125 0-24.996094-11.214844-24.996094-24.996094v-306.003906h452v306.003906c0 13.78125-11.214844 24.996094-24.996094 24.996094zm0 0" data-original="#000000" class="active-path" data-old_color="#8900FF" fill="#9041D6"/><path d="m451 76c0 8.285156-6.714844 15-15 15s-15-6.714844-15-15 6.714844-15 15-15 15 6.714844 15 15zm0 0" data-original="#000000" class="active-path" data-old_color="#8900FF" fill="#9041D6"/><path d="m391 76c0 8.285156-6.714844 15-15 15s-15-6.714844-15-15 6.714844-15 15-15 15 6.714844 15 15zm0 0" data-original="#000000" class="active-path" data-old_color="#8900FF" fill="#9041D6"/><path d="m331 76c0 8.285156-6.714844 15-15 15s-15-6.714844-15-15 6.714844-15 15-15 15 6.714844 15 15zm0 0" data-original="#000000" class="active-path" data-old_color="#8900FF" fill="#9041D6"/><path d="m256 181c-74.4375 0-135 60.5625-135 135s60.5625 135 135 135 135-60.5625 135-135-60.5625-135-135-135zm0 240c-5.167969 0-14.097656-6.8125-22.257812-26.015625-2.464844-5.800781-4.609376-12.179687-6.441407-18.984375h57.398438c-8.179688 30.425781-20.777344 45-28.699219 45zm-34.300781-75c-2.265625-19.613281-2.265625-40.371094 0-60h68.605469c2.261718 19.613281 2.261718 40.371094 0 60zm-66.324219-60h36.15625c-2.039062 19.761719-2.042969 40.203125 0 60h-36.15625c-5.828125-19.511719-5.839844-40.449219 0-60zm100.625-75c5.167969 0 14.097656 6.8125 22.257812 26.015625 2.464844 5.800781 4.609376 12.179687 6.441407 18.984375h-57.398438c8.179688-30.425781 20.777344-45 28.699219-45zm64.46875 75h36.15625c5.828125 19.515625 5.839844 40.449219 0 60h-36.15625c2.039062-19.761719 2.042969-40.203125 0-60zm21.648438-30h-26.523438c-2.5625-11.230469-6.039062-22.480469-10.671875-32.882812 14.859375 7.859374 27.617187 19.179687 37.195313 32.882812zm-135.039063-32.882812c-4.628906 10.398437-8.109375 21.652343-10.671875 32.882812h-26.523438c9.578126-13.703125 22.335938-25.023438 37.195313-32.882812zm-37.195313 152.882812h26.523438c2.5625 11.230469 6.039062 22.480469 10.671875 32.882812-14.859375-7.859374-27.617187-19.179687-37.195313-32.882812zm135.039063 32.882812c4.628906-10.398437 8.109375-21.652343 10.671875-32.882812h26.523438c-9.578126 13.703125-22.335938 25.023438-37.195313 32.882812zm0 0" data-original="#000000" class="active-path" data-old_color="#8900FF" fill="#9041D6"/></g> </svg>
