<svg width="1100" height="500" viewBox="0 0 1100 500" fill="none" xmlns="http://www.w3.org/2000/svg">
<mask id="mask0_2_92" style="mask-type:alpha" maskUnits="userSpaceOnUse" x="0" y="81" width="338" height="338">
<path d="M0 383.363C0 403.046 16.0229 419 35.6371 419H302.363C322.046 419 338 402.977 338 383.363V116.637C338 96.9538 321.977 81 302.363 81H35.6371C15.9538 81 0 97.0229 0 116.637V383.363ZM302.363 402.079H35.6371C25.3465 402.079 16.9207 393.653 16.9207 383.363V338.817L81.0123 274.725L135.78 329.493C139.095 332.808 144.413 332.808 147.728 329.493L246.628 230.593L321.079 305.044V383.363C321.079 393.653 312.653 402.079 302.363 402.079ZM35.6371 97.9207H302.363C312.653 97.9207 321.079 106.347 321.079 116.637V281.079L252.568 212.636C249.253 209.321 243.935 209.321 240.62 212.636L141.72 311.536L86.9518 256.768C83.6367 253.453 78.3188 253.453 75.0037 256.768L16.9207 314.851V116.637C16.9207 106.347 25.3465 97.9207 35.6371 97.9207Z" fill="black"/>
<path d="M104.77 216.435C128.528 216.435 147.797 197.097 147.797 173.408C147.797 149.719 128.459 130.381 104.77 130.381C81.0813 130.381 61.7434 149.719 61.7434 173.408C61.7434 197.097 81.0123 216.435 104.77 216.435ZM104.77 147.302C119.205 147.302 130.877 159.043 130.877 173.408C130.877 187.773 119.136 199.514 104.77 199.514C90.405 199.514 78.6641 187.773 78.6641 173.408C78.6641 159.043 90.3359 147.302 104.77 147.302Z" fill="black"/>
</mask>
<g mask="url(#mask0_2_92)">
<path d="M-22 37H192V464H-22V37Z" fill="black"/>
</g>
<mask id="mask1_2_92" style="mask-type:alpha" maskUnits="userSpaceOnUse" x="210" y="81" width="338" height="338">
<path d="M210 383.363C210 403.046 226.023 419 245.637 419H512.363C532.046 419 548 402.977 548 383.363V116.637C548 96.9538 531.977 81 512.363 81H245.637C225.954 81 210 97.0229 210 116.637V383.363ZM512.363 402.079H245.637C235.347 402.079 226.921 393.653 226.921 383.363V338.817L291.012 274.725L345.78 329.493C349.095 332.808 354.413 332.808 357.728 329.493L456.628 230.593L531.079 305.044V383.363C531.079 393.653 522.653 402.079 512.363 402.079ZM245.637 97.9207H512.363C522.653 97.9207 531.079 106.347 531.079 116.637V281.079L462.568 212.636C459.253 209.321 453.935 209.321 450.62 212.636L351.72 311.536L296.952 256.768C293.637 253.453 288.319 253.453 285.004 256.768L226.921 314.851V116.637C226.921 106.347 235.347 97.9207 245.637 97.9207Z" fill="black"/>
<path d="M314.77 216.435C338.528 216.435 357.797 197.097 357.797 173.408C357.797 149.719 338.459 130.381 314.77 130.381C291.081 130.381 271.743 149.719 271.743 173.408C271.743 197.097 291.012 216.435 314.77 216.435ZM314.77 147.302C329.205 147.302 340.877 159.043 340.877 173.408C340.877 187.773 329.136 199.514 314.77 199.514C300.405 199.514 288.664 187.773 288.664 173.408C288.664 159.043 300.336 147.302 314.77 147.302Z" fill="black"/>
</mask>
<g mask="url(#mask1_2_92)">
<path d="M188 37H402V464H188V37Z" fill="black"/>
</g>
<mask id="mask2_2_92" style="mask-type:alpha" maskUnits="userSpaceOnUse" x="420" y="81" width="338" height="338">
<path d="M420 383.363C420 403.046 436.023 419 455.637 419H722.363C742.046 419 758 402.977 758 383.363V116.637C758 96.9538 741.977 81 722.363 81H455.637C435.954 81 420 97.0229 420 116.637V383.363ZM722.363 402.079H455.637C445.347 402.079 436.921 393.653 436.921 383.363V338.817L501.012 274.725L555.78 329.493C559.095 332.808 564.413 332.808 567.728 329.493L666.628 230.593L741.079 305.044V383.363C741.079 393.653 732.653 402.079 722.363 402.079ZM455.637 97.9207H722.363C732.653 97.9207 741.079 106.347 741.079 116.637V281.079L672.568 212.636C669.253 209.321 663.935 209.321 660.62 212.636L561.72 311.536L506.952 256.768C503.637 253.453 498.319 253.453 495.004 256.768L436.921 314.851V116.637C436.921 106.347 445.347 97.9207 455.637 97.9207Z" fill="black"/>
<path d="M524.77 216.435C548.528 216.435 567.797 197.097 567.797 173.408C567.797 149.719 548.459 130.381 524.77 130.381C501.081 130.381 481.743 149.719 481.743 173.408C481.743 197.097 501.012 216.435 524.77 216.435ZM524.77 147.302C539.205 147.302 550.877 159.043 550.877 173.408C550.877 187.773 539.136 199.514 524.77 199.514C510.405 199.514 498.664 187.773 498.664 173.408C498.664 159.043 510.336 147.302 524.77 147.302Z" fill="black"/>
</mask>
<g mask="url(#mask2_2_92)">
<path d="M398 37H612V464H398V37Z" fill="black"/>
</g>
<mask id="mask3_2_92" style="mask-type:alpha" maskUnits="userSpaceOnUse" x="630" y="81" width="338" height="338">
<path d="M630 383.363C630 403.046 646.023 419 665.637 419H932.363C952.046 419 968 402.977 968 383.363V116.637C968 96.9538 951.977 81 932.363 81H665.637C645.954 81 630 97.0229 630 116.637V383.363ZM932.363 402.079H665.637C655.347 402.079 646.921 393.653 646.921 383.363V338.817L711.012 274.725L765.78 329.493C769.095 332.808 774.413 332.808 777.728 329.493L876.628 230.593L951.079 305.044V383.363C951.079 393.653 942.653 402.079 932.363 402.079ZM665.637 97.9207H932.363C942.653 97.9207 951.079 106.347 951.079 116.637V281.079L882.568 212.636C879.253 209.321 873.935 209.321 870.62 212.636L771.72 311.536L716.952 256.768C713.637 253.453 708.319 253.453 705.004 256.768L646.921 314.851V116.637C646.921 106.347 655.347 97.9207 665.637 97.9207Z" fill="black"/>
<path d="M734.77 216.435C758.528 216.435 777.797 197.097 777.797 173.408C777.797 149.719 758.459 130.381 734.77 130.381C711.081 130.381 691.743 149.719 691.743 173.408C691.743 197.097 711.012 216.435 734.77 216.435ZM734.77 147.302C749.205 147.302 760.877 159.043 760.877 173.408C760.877 187.773 749.136 199.514 734.77 199.514C720.405 199.514 708.664 187.773 708.664 173.408C708.664 159.043 720.336 147.302 734.77 147.302Z" fill="black"/>
</mask>
<g mask="url(#mask3_2_92)">
<path d="M608 37H822V464H608V37Z" fill="black"/>
</g>
<path d="M1089.75 240.25H1007.75V158.249C1007.75 152.593 1003.16 148 997.499 148C991.842 148 987.25 152.593 987.25 158.249V240.25H905.249C899.593 240.25 895 244.842 895 250.499C895 256.158 899.593 260.75 905.249 260.75H987.25V342.749C987.25 348.407 991.842 353 997.499 353C1003.16 353 1007.75 348.407 1007.75 342.749V260.75H1089.75C1095.41 260.75 1100 256.158 1100 250.499C1100 244.842 1095.41 240.25 1089.75 240.25Z" fill="black"/>
</svg>
