<svg width="1100" height="500" viewBox="0 0 1100 500" fill="none" xmlns="http://www.w3.org/2000/svg">
<path d="M300 447.282C300 476.4 323.702 500 352.718 500H747.282C776.4 500 800 476.297 800 447.282V52.7176C800 23.6003 776.297 0 747.282 0H352.718C323.6 0 300 23.7025 300 52.7176V447.282ZM747.282 474.969H352.718C337.495 474.969 325.031 462.505 325.031 447.282V381.385L419.841 286.575L500.858 367.593C505.762 372.497 513.629 372.497 518.533 367.593L664.834 221.291L774.969 331.426V447.282C774.969 462.505 762.505 474.969 747.282 474.969ZM352.718 25.0306H747.282C762.505 25.0306 774.969 37.4949 774.969 52.7176V295.975L673.621 194.728C668.717 189.824 660.85 189.824 655.946 194.728L509.644 341.03L428.627 260.012C423.723 255.108 415.856 255.108 410.952 260.012L325.031 345.934V52.7176C325.031 37.4949 337.495 25.0306 352.718 25.0306Z" fill="black"/>
<path d="M454.986 200.347C490.131 200.347 518.635 171.741 518.635 136.698C518.635 101.655 490.029 73.0486 454.986 73.0486C419.943 73.0486 391.336 101.655 391.336 136.698C391.336 171.741 419.841 200.347 454.986 200.347ZM454.986 98.0793C476.338 98.0793 493.604 115.447 493.604 136.698C493.604 157.949 476.236 175.317 454.986 175.317C433.735 175.317 416.367 157.949 416.367 136.698C416.367 115.447 433.633 98.0793 454.986 98.0793Z" fill="black"/>
</svg>
