<svg width="1100" height="500" viewBox="0 0 1100 500" fill="none" xmlns="http://www.w3.org/2000/svg">
<g clip-path="url(#clip0_2_82)">
<path d="M0 447.282C0 476.4 23.7025 500 52.7176 500H447.282C476.4 500 500 476.297 500 447.282V52.7176C500 23.6003 476.297 0 447.282 0H52.7176C23.6003 0 0 23.7025 0 52.7176V447.282ZM447.282 474.969H52.7176C37.4949 474.969 25.0306 462.505 25.0306 447.282V381.385L119.841 286.575L200.858 367.593C205.762 372.497 213.629 372.497 218.533 367.593L364.834 221.291L474.969 331.426V447.282C474.969 462.505 462.505 474.969 447.282 474.969ZM52.7176 25.0306H447.282C462.505 25.0306 474.969 37.4949 474.969 52.7176V295.975L373.621 194.728C368.717 189.824 360.85 189.824 355.946 194.728L209.644 341.03L128.627 260.012C123.723 255.108 115.856 255.108 110.952 260.012L25.0306 345.934V52.7176C25.0306 37.4949 37.4949 25.0306 52.7176 25.0306Z" fill="black"/>
<path d="M154.986 200.347C190.131 200.347 218.635 171.741 218.635 136.698C218.635 101.655 190.029 73.0486 154.986 73.0486C119.943 73.0486 91.3363 101.655 91.3363 136.698C91.3363 171.741 119.841 200.347 154.986 200.347ZM154.986 98.0793C176.338 98.0793 193.604 115.447 193.604 136.698C193.604 157.949 176.236 175.317 154.986 175.317C133.735 175.317 116.367 157.949 116.367 136.698C116.367 115.447 133.633 98.0793 154.986 98.0793Z" fill="black"/>
<path d="M600 447.282C600 476.4 623.702 500 652.718 500H1047.28C1076.4 500 1100 476.297 1100 447.282V52.7176C1100 23.6003 1076.3 0 1047.28 0H652.718C623.6 0 600 23.7025 600 52.7176V447.282ZM1047.28 474.969H652.718C637.495 474.969 625.031 462.505 625.031 447.282V381.385L719.841 286.575L800.858 367.593C805.762 372.497 813.629 372.497 818.533 367.593L964.834 221.291L1074.97 331.426V447.282C1074.97 462.505 1062.51 474.969 1047.28 474.969ZM652.718 25.0306H1047.28C1062.51 25.0306 1074.97 37.4949 1074.97 52.7176V295.975L973.621 194.728C968.717 189.824 960.85 189.824 955.946 194.728L809.644 341.03L728.627 260.012C723.723 255.108 715.856 255.108 710.952 260.012L625.031 345.934V52.7176C625.031 37.4949 637.495 25.0306 652.718 25.0306Z" fill="black"/>
<path d="M754.986 200.347C790.131 200.347 818.635 171.741 818.635 136.698C818.635 101.655 790.029 73.0486 754.986 73.0486C719.943 73.0486 691.336 101.655 691.336 136.698C691.336 171.741 719.841 200.347 754.986 200.347ZM754.986 98.0793C776.338 98.0793 793.604 115.447 793.604 136.698C793.604 157.949 776.236 175.317 754.986 175.317C733.735 175.317 716.367 157.949 716.367 136.698C716.367 115.447 733.633 98.0793 754.986 98.0793Z" fill="black"/>
</g>
<defs>
<clipPath id="clip0_2_82">
<rect width="1100" height="500" fill="white"/>
</clipPath>
</defs>
</svg>
