<svg width="1100" height="500" viewBox="0 0 1100 500" fill="none" xmlns="http://www.w3.org/2000/svg">
<path d="M0 383.363C0 403.046 16.0229 419 35.6371 419H302.363C322.046 419 338 402.977 338 383.363V116.637C338 96.9538 321.977 81 302.363 81H35.6371C15.9538 81 0 97.0229 0 116.637V383.363ZM302.363 402.079H35.6371C25.3465 402.079 16.9207 393.653 16.9207 383.363V338.817L81.0123 274.725L135.78 329.493C139.095 332.808 144.413 332.808 147.728 329.493L246.628 230.593L321.079 305.044V383.363C321.079 393.653 312.653 402.079 302.363 402.079ZM35.6371 97.9207H302.363C312.653 97.9207 321.079 106.347 321.079 116.637V281.079L252.568 212.636C249.253 209.321 243.935 209.321 240.62 212.636L141.72 311.536L86.9518 256.768C83.6367 253.453 78.3188 253.453 75.0037 256.768L16.9207 314.851V116.637C16.9207 106.347 25.3465 97.9207 35.6371 97.9207Z" fill="black"/>
<path d="M104.77 216.435C128.528 216.435 147.797 197.097 147.797 173.408C147.797 149.719 128.459 130.381 104.77 130.381C81.0813 130.381 61.7434 149.719 61.7434 173.408C61.7434 197.097 81.0123 216.435 104.77 216.435ZM104.77 147.302C119.205 147.302 130.877 159.043 130.877 173.408C130.877 187.773 119.136 199.514 104.77 199.514C90.405 199.514 78.6641 187.773 78.6641 173.408C78.6641 159.043 90.3359 147.302 104.77 147.302Z" fill="black"/>
<path d="M381 383.363C381 403.046 397.023 419 416.637 419H683.363C703.046 419 719 402.977 719 383.363V116.637C719 96.9538 702.977 81 683.363 81H416.637C396.954 81 381 97.0229 381 116.637V383.363ZM683.363 402.079H416.637C406.347 402.079 397.921 393.653 397.921 383.363V338.817L462.012 274.725L516.78 329.493C520.095 332.808 525.413 332.808 528.728 329.493L627.628 230.593L702.079 305.044V383.363C702.079 393.653 693.653 402.079 683.363 402.079ZM416.637 97.9207H683.363C693.653 97.9207 702.079 106.347 702.079 116.637V281.079L633.568 212.636C630.253 209.321 624.935 209.321 621.62 212.636L522.72 311.536L467.952 256.768C464.637 253.453 459.319 253.453 456.004 256.768L397.921 314.851V116.637C397.921 106.347 406.347 97.9207 416.637 97.9207Z" fill="black"/>
<path d="M485.77 216.435C509.528 216.435 528.797 197.097 528.797 173.408C528.797 149.719 509.459 130.381 485.77 130.381C462.081 130.381 442.743 149.719 442.743 173.408C442.743 197.097 462.012 216.435 485.77 216.435ZM485.77 147.302C500.205 147.302 511.877 159.043 511.877 173.408C511.877 187.773 500.136 199.514 485.77 199.514C471.405 199.514 459.664 187.773 459.664 173.408C459.664 159.043 471.336 147.302 485.77 147.302Z" fill="black"/>
<path d="M762 383.363C762 403.046 778.023 419 797.637 419H1064.36C1084.05 419 1100 402.977 1100 383.363V116.637C1100 96.9538 1083.98 81 1064.36 81H797.637C777.954 81 762 97.0229 762 116.637V383.363ZM1064.36 402.079H797.637C787.347 402.079 778.921 393.653 778.921 383.363V338.817L843.012 274.725L897.78 329.493C901.095 332.808 906.413 332.808 909.728 329.493L1008.63 230.593L1083.08 305.044V383.363C1083.08 393.653 1074.65 402.079 1064.36 402.079ZM797.637 97.9207H1064.36C1074.65 97.9207 1083.08 106.347 1083.08 116.637V281.079L1014.57 212.636C1011.25 209.321 1005.93 209.321 1002.62 212.636L903.72 311.536L848.952 256.768C845.637 253.453 840.319 253.453 837.004 256.768L778.921 314.851V116.637C778.921 106.347 787.347 97.9207 797.637 97.9207Z" fill="black"/>
<path d="M866.77 216.435C890.528 216.435 909.797 197.097 909.797 173.408C909.797 149.719 890.459 130.381 866.77 130.381C843.081 130.381 823.743 149.719 823.743 173.408C823.743 197.097 843.012 216.435 866.77 216.435ZM866.77 147.302C881.205 147.302 892.877 159.043 892.877 173.408C892.877 187.773 881.136 199.514 866.77 199.514C852.405 199.514 840.664 187.773 840.664 173.408C840.664 159.043 852.336 147.302 866.77 147.302Z" fill="black"/>
</svg>
