<svg width="1100" height="500" viewBox="0 0 1100 500" fill="none" xmlns="http://www.w3.org/2000/svg">
<g clip-path="url(#clip0_3_116)">
<path d="M935.345 171.922H605.015C596.757 171.922 590 178.679 590 186.937C590 195.195 596.757 201.952 605.015 201.952H935.345C943.604 201.952 950.36 195.195 950.36 186.937C950.36 178.679 943.604 171.922 935.345 171.922Z" fill="black"/>
<path d="M1084.99 47.2974H605.015C596.757 47.2974 590 54.0541 590 62.3124C590 70.5706 596.757 77.3274 605.015 77.3274H1084.99C1093.24 77.3274 1100 70.5706 1100 62.3124C1100 54.0541 1093.24 47.2974 1084.99 47.2974Z" fill="black"/>
<path d="M1084.99 298.048H605.015C596.757 298.048 590 304.805 590 313.063C590 321.321 596.757 328.078 605.015 328.078H1084.99C1093.24 328.078 1100 321.321 1100 313.063C1100 304.805 1093.24 298.048 1084.99 298.048Z" fill="black"/>
<path d="M816.727 422.673H605.015C596.757 422.673 590 429.429 590 437.688C590 445.946 596.757 452.703 605.015 452.703H816.727C824.985 452.703 831.742 445.946 831.742 437.688C831.742 429.429 824.985 422.673 816.727 422.673Z" fill="black"/>
<path d="M0 447.282C0 476.4 23.7025 500 52.7176 500H447.282C476.4 500 500 476.297 500 447.282V52.7176C500 23.6003 476.297 0 447.282 0H52.7176C23.6003 0 0 23.7025 0 52.7176V447.282ZM447.282 474.969H52.7176C37.4949 474.969 25.0306 462.505 25.0306 447.282V381.385L119.841 286.575L200.858 367.593C205.762 372.497 213.629 372.497 218.533 367.593L364.834 221.291L474.969 331.426V447.282C474.969 462.505 462.505 474.969 447.282 474.969ZM52.7176 25.0306H447.282C462.505 25.0306 474.969 37.4949 474.969 52.7176V295.975L373.621 194.728C368.717 189.824 360.85 189.824 355.946 194.728L209.644 341.03L128.627 260.012C123.723 255.108 115.856 255.108 110.952 260.012L25.0306 345.934V52.7176C25.0306 37.4949 37.4949 25.0306 52.7176 25.0306Z" fill="black"/>
<path d="M154.986 200.347C190.131 200.347 218.635 171.741 218.635 136.698C218.635 101.655 190.029 73.0486 154.986 73.0486C119.943 73.0486 91.3363 101.655 91.3363 136.698C91.3363 171.741 119.841 200.347 154.986 200.347ZM154.986 98.0793C176.338 98.0793 193.604 115.447 193.604 136.698C193.604 157.949 176.236 175.317 154.986 175.317C133.735 175.317 116.367 157.949 116.367 136.698C116.367 115.447 133.633 98.0793 154.986 98.0793Z" fill="black"/>
</g>
<defs>
<clipPath id="clip0_3_116">
<rect width="1100" height="500" fill="white"/>
</clipPath>
</defs>
</svg>
