<svg width="1100" height="500" viewBox="0 0 1100 500" fill="none" xmlns="http://www.w3.org/2000/svg">
<g clip-path="url(#clip0_1_5)">
<path d="M345.345 171.922H15.015C6.75676 171.922 0 178.679 0 186.937C0 195.195 6.75676 201.952 15.015 201.952H345.345C353.604 201.952 360.36 195.195 360.36 186.937C360.36 178.679 353.604 171.922 345.345 171.922Z" fill="black"/>
<path d="M494.985 47.2972H15.015C6.75676 47.2972 0 54.054 0 62.3123C0 70.5705 6.75676 77.3273 15.015 77.3273H494.985C503.243 77.3273 510 70.5705 510 62.3123C510 54.054 503.243 47.2972 494.985 47.2972Z" fill="black"/>
<path d="M494.985 298.048H15.015C6.75676 298.048 0 304.805 0 313.063C0 321.321 6.75676 328.078 15.015 328.078H494.985C503.243 328.078 510 321.321 510 313.063C510 304.805 503.243 298.048 494.985 298.048Z" fill="black"/>
<path d="M226.727 422.673H15.015C6.75676 422.673 0 429.429 0 437.688C0 445.946 6.75676 452.703 15.015 452.703H226.727C234.985 452.703 241.742 445.946 241.742 437.688C241.742 429.429 234.985 422.673 226.727 422.673Z" fill="black"/>
<path d="M935.345 171.922H605.015C596.757 171.922 590 178.679 590 186.937C590 195.195 596.757 201.952 605.015 201.952H935.345C943.604 201.952 950.36 195.195 950.36 186.937C950.36 178.679 943.604 171.922 935.345 171.922Z" fill="black"/>
<path d="M1084.99 47.2972H605.015C596.757 47.2972 590 54.054 590 62.3123C590 70.5705 596.757 77.3273 605.015 77.3273H1084.99C1093.24 77.3273 1100 70.5705 1100 62.3123C1100 54.054 1093.24 47.2972 1084.99 47.2972Z" fill="black"/>
<path d="M1084.99 298.048H605.015C596.757 298.048 590 304.805 590 313.063C590 321.321 596.757 328.078 605.015 328.078H1084.99C1093.24 328.078 1100 321.321 1100 313.063C1100 304.805 1093.24 298.048 1084.99 298.048Z" fill="black"/>
<path d="M816.727 422.673H605.015C596.757 422.673 590 429.429 590 437.688C590 445.946 596.757 452.703 605.015 452.703H816.727C824.985 452.703 831.742 445.946 831.742 437.688C831.742 429.429 824.985 422.673 816.727 422.673Z" fill="black"/>
</g>
<defs>
<clipPath id="clip0_1_5">
<rect width="1100" height="500" fill="white"/>
</clipPath>
</defs>
</svg>
