<svg width="1100" height="500" viewBox="0 0 1100 500" fill="none" xmlns="http://www.w3.org/2000/svg">
<g clip-path="url(#clip0_3_112)">
<path d="M345.345 171.922H15.015C6.75676 171.922 0 178.679 0 186.937C0 195.195 6.75676 201.952 15.015 201.952H345.345C353.604 201.952 360.36 195.195 360.36 186.937C360.36 178.679 353.604 171.922 345.345 171.922Z" fill="black"/>
<path d="M494.985 47.2974H15.015C6.75676 47.2974 0 54.0541 0 62.3124C0 70.5706 6.75676 77.3274 15.015 77.3274H494.985C503.243 77.3274 510 70.5706 510 62.3124C510 54.0541 503.243 47.2974 494.985 47.2974Z" fill="black"/>
<path d="M494.985 298.048H15.015C6.75676 298.048 0 304.805 0 313.063C0 321.321 6.75676 328.078 15.015 328.078H494.985C503.243 328.078 510 321.321 510 313.063C510 304.805 503.243 298.048 494.985 298.048Z" fill="black"/>
<path d="M226.727 422.673H15.015C6.75676 422.673 0 429.429 0 437.688C0 445.946 6.75676 452.703 15.015 452.703H226.727C234.985 452.703 241.742 445.946 241.742 437.688C241.742 429.429 234.985 422.673 226.727 422.673Z" fill="black"/>
<path d="M600 447.282C600 476.4 623.702 500 652.718 500H1047.28C1076.4 500 1100 476.297 1100 447.282V52.7176C1100 23.6003 1076.3 0 1047.28 0H652.718C623.6 0 600 23.7025 600 52.7176V447.282ZM1047.28 474.969H652.718C637.495 474.969 625.031 462.505 625.031 447.282V381.385L719.841 286.575L800.858 367.593C805.762 372.497 813.629 372.497 818.533 367.593L964.834 221.291L1074.97 331.426V447.282C1074.97 462.505 1062.51 474.969 1047.28 474.969ZM652.718 25.0306H1047.28C1062.51 25.0306 1074.97 37.4949 1074.97 52.7176V295.975L973.621 194.728C968.717 189.824 960.85 189.824 955.946 194.728L809.644 341.03L728.627 260.012C723.723 255.108 715.856 255.108 710.952 260.012L625.031 345.934V52.7176C625.031 37.4949 637.495 25.0306 652.718 25.0306Z" fill="black"/>
<path d="M754.986 200.347C790.131 200.347 818.635 171.741 818.635 136.698C818.635 101.655 790.029 73.0486 754.986 73.0486C719.943 73.0486 691.336 101.655 691.336 136.698C691.336 171.741 719.841 200.347 754.986 200.347ZM754.986 98.0793C776.338 98.0793 793.604 115.447 793.604 136.698C793.604 157.949 776.236 175.317 754.986 175.317C733.735 175.317 716.367 157.949 716.367 136.698C716.367 115.447 733.633 98.0793 754.986 98.0793Z" fill="black"/>
</g>
<defs>
<clipPath id="clip0_3_112">
<rect width="1100" height="500" fill="white"/>
</clipPath>
</defs>
</svg>
