<svg width="1100" height="500" viewBox="0 0 1100 500" fill="none" xmlns="http://www.w3.org/2000/svg">
<g clip-path="url(#clip0_1_8)">
<path d="M225.345 171.922H15.015C6.75676 171.922 0 178.679 0 186.937C0 195.195 6.75676 201.952 15.015 201.952H225.345C233.604 201.952 240.36 195.195 240.36 186.937C240.36 178.679 233.604 171.922 225.345 171.922Z" fill="black"/>
<path d="M274.985 47.2974H15.015C6.75676 47.2974 0 54.0541 0 62.3124C0 70.5706 6.75676 77.3274 15.015 77.3274H274.985C283.243 77.3274 290 70.5706 290 62.3124C290 54.0541 283.243 47.2974 274.985 47.2974Z" fill="black"/>
<path d="M274.985 298.048H15.015C6.75676 298.048 0 304.805 0 313.063C0 321.321 6.75676 328.078 15.015 328.078H274.985C283.243 328.078 290 321.321 290 313.063C290 304.805 283.243 298.048 274.985 298.048Z" fill="black"/>
<path d="M76.7267 422.673H15.015C6.75676 422.673 0 429.429 0 437.688C0 445.946 6.75676 452.703 15.015 452.703H76.7267C84.985 452.703 91.7417 445.946 91.7417 437.688C91.7417 429.429 84.985 422.673 76.7267 422.673Z" fill="black"/>
<path d="M630.345 171.922H420.015C411.757 171.922 405 178.679 405 186.937C405 195.195 411.757 201.952 420.015 201.952H630.345C638.604 201.952 645.36 195.195 645.36 186.937C645.36 178.679 638.604 171.922 630.345 171.922Z" fill="black"/>
<path d="M679.985 47.2974H420.015C411.757 47.2974 405 54.0541 405 62.3124C405 70.5706 411.757 77.3274 420.015 77.3274H679.985C688.243 77.3274 695 70.5706 695 62.3124C695 54.0541 688.243 47.2974 679.985 47.2974Z" fill="black"/>
<path d="M679.985 298.048H420.015C411.757 298.048 405 304.805 405 313.063C405 321.321 411.757 328.078 420.015 328.078H679.985C688.243 328.078 695 321.321 695 313.063C695 304.805 688.243 298.048 679.985 298.048Z" fill="black"/>
<path d="M481.727 422.673H420.015C411.757 422.673 405 429.429 405 437.688C405 445.946 411.757 452.703 420.015 452.703H481.727C489.985 452.703 496.742 445.946 496.742 437.688C496.742 429.429 489.985 422.673 481.727 422.673Z" fill="black"/>
<path d="M1035.35 171.922H825.015C816.757 171.922 810 178.679 810 186.937C810 195.195 816.757 201.952 825.015 201.952H1035.35C1043.6 201.952 1050.36 195.195 1050.36 186.937C1050.36 178.679 1043.6 171.922 1035.35 171.922Z" fill="black"/>
<path d="M1084.99 47.2974H825.015C816.757 47.2974 810 54.0541 810 62.3124C810 70.5706 816.757 77.3274 825.015 77.3274H1084.99C1093.24 77.3274 1100 70.5706 1100 62.3124C1100 54.0541 1093.24 47.2974 1084.99 47.2974Z" fill="black"/>
<path d="M1084.99 298.048H825.015C816.757 298.048 810 304.805 810 313.063C810 321.321 816.757 328.078 825.015 328.078H1084.99C1093.24 328.078 1100 321.321 1100 313.063C1100 304.805 1093.24 298.048 1084.99 298.048Z" fill="black"/>
<path d="M886.727 422.673H825.015C816.757 422.673 810 429.429 810 437.688C810 445.946 816.757 452.703 825.015 452.703H886.727C894.985 452.703 901.742 445.946 901.742 437.688C901.742 429.429 894.985 422.673 886.727 422.673Z" fill="black"/>
</g>
<defs>
<clipPath id="clip0_1_8">
<rect width="1100" height="500" fill="white"/>
</clipPath>
</defs>
</svg>
