<svg width="1100" height="501" viewBox="0 0 1100 501" fill="none" xmlns="http://www.w3.org/2000/svg">
<path d="M775.345 172.422H15.015C6.75676 172.422 0 179.179 0 187.437C0 195.695 6.75676 202.452 15.015 202.452H775.345C783.604 202.452 790.36 195.695 790.36 187.437C790.36 179.179 783.604 172.422 775.345 172.422Z" fill="black"/>
<path d="M1084.98 47.7973H15.015C6.75676 47.7973 0 54.5541 0 62.8123C0 71.0706 6.75676 77.8273 15.015 77.8273H1084.98C1093.24 77.8273 1100 71.0706 1100 62.8123C1100 54.5541 1093.24 47.7973 1084.98 47.7973Z" fill="black"/>
<path d="M1084.98 298.548H15.015C6.75676 298.548 0 305.305 0 313.563C0 321.821 6.75676 328.578 15.015 328.578H1084.98C1093.24 328.578 1100 321.821 1100 313.563C1100 305.305 1093.24 298.548 1084.98 298.548Z" fill="black"/>
<path d="M506.727 423.173H15.015C6.75676 423.173 0 429.929 0 438.188C0 446.446 6.75676 453.203 15.015 453.203H506.727C514.985 453.203 521.742 446.446 521.742 438.188C521.742 429.929 514.985 423.173 506.727 423.173Z" fill="black"/>
</svg>
